# xmcd
# 
# Track frame offsets:
#     150
#     3005
#     18955
#     27156
#     39455
#     72310
#     86462
#     88230
#     101060
#     106135
#     126605
#     153622
#     161215
#     168110
#     169702
#     189087
#     202450
#     206065
#     218407
#     231200
#     237037
#     252045
#     270662
# 
# Disc length: 3936
# 
# Revision: 12
# Processed by: cddbd v1.5.2PL0 Copyright (c) Steve Scherf et al.
# Submitted via: fre:ac v1.0.31
# 
DISCID=310f5e17
DTITLE=Various Artist - The Royal Tenenbaums
DYEAR=2001
DGENRE=Soundtrack
TTITLE0=Mark Mothersbaugh - 111 Archer Avenue
TTITLE1=Nico - These Days
TTITLE2=Quatuor Ysaÿe - String Quartet in F Major (Second Movement)
TTITLE3=Paul Simon - Me And Julio Down By The Schoolyard
TTITLE4=The Mutato Muzika Orchestra - Sonata for Cello and Piano in F Minor
TTITLE5=Bob Dylan - Wigwam
TTITLE6=Mark Mothersbaugh - Look At That Old Grizzly Bear
TTITLE7=John Lennon - Look At Me
TTITLE8=Emitt Rhodes - Lullabye
TTITLE9=Mark Mothersbaugh - Mothersbaugh's Canon
TTITLE10=The Clash - Police and Thieves
TTITLE11=Mark Mothersbaugh - Scrapping and Yelling
TTITLE12=The Ramones - Judy Is A Punk
TTITLE13=Mark Mothersbaugh - Pagoda's Theme
TTITLE14=Elliott Smith - Needle In The Hay
TTITLE15=Nick Drake - Fly
TTITLE16=Mark Mothersbaugh - I Always Wanted To Be A Tenenbaum
TTITLE17=Vince Guaraldi Trio - Christmas Time Is Here
TTITLE18=The Velvet Underground - Stephanie Says
TTITLE19=Mark Mothersbaugh - Rachel Evans Tenenbaum (1965-2000)
TTITLE20=Mark Mothersbaugh - Sparkplug Minuet
TTITLE21=Nico - The Fairest Of The Seasons
TTITLE22=The Mutato Muzika Orchestra - Hey Jude
EXTD=
EXTT0=
EXTT1=
EXTT2=
EXTT3=
EXTT4=
EXTT5=
EXTT6=
EXTT7=
EXTT8=
EXTT9=
EXTT10=
EXTT11=
EXTT12=
EXTT13=
EXTT14=
EXTT15=
EXTT16=
EXTT17=
EXTT18=
EXTT19=
EXTT20=
EXTT21=
EXTT22=
PLAYORDER=
